<?xml version="1.0" encoding="UTF-8" standalone="no"?>
<!-- Created with Inkscape (http://www.inkscape.org/) -->

<svg
   width="16"
   height="16"
   viewBox="0 0 16 16"
   version="1.1"
   id="svg1"
   inkscape:version="1.4.2 (ebf0e940d0, 2025-05-08)"
   sodipodi:docname="settings.svg"
   xmlns:inkscape="http://www.inkscape.org/namespaces/inkscape"
   xmlns:sodipodi="http://sodipodi.sourceforge.net/DTD/sodipodi-0.dtd"
   xmlns="http://www.w3.org/2000/svg"
   xmlns:svg="http://www.w3.org/2000/svg">
  <sodipodi:namedview
     id="namedview1"
     pagecolor="#ffffff"
     bordercolor="#000000"
     borderopacity="0.25"
     inkscape:showpageshadow="2"
     inkscape:pageopacity="0.0"
     inkscape:pagecheckerboard="0"
     inkscape:deskcolor="#d1d1d1"
     inkscape:document-units="px"
     inkscape:zoom="25.835516"
     inkscape:cx="5.2060117"
     inkscape:cy="10.276551"
     inkscape:window-width="1745"
     inkscape:window-height="916"
     inkscape:window-x="0"
     inkscape:window-y="0"
     inkscape:window-maximized="1"
     inkscape:current-layer="layer1" />
  <defs
     id="defs1" />
  <g
     inkscape:label="Layer 1"
     inkscape:groupmode="layer"
     id="layer1">
    <path
       id="path1"
       style="fill:#ffffff;fill-opacity:1;stroke:#ffffff;stroke-width:0.874851;stroke-linecap:square;stroke-miterlimit:3;stroke-dasharray:none;stroke-opacity:1;paint-order:stroke fill markers"
       d="M 6.2167969 0.76953125 L 6.2167969 1.8261719 A 6.4632616 6.4632616 0 0 0 3.34375 3.5175781 L 2.4472656 3 L 0.83789062 5.7871094 L 1.7265625 6.3007812 A 6.4632616 6.4632616 0 0 0 1.484375 8.0546875 A 6.4632616 6.4632616 0 0 0 1.6953125 9.6875 L 0.93945312 10.123047 L 2.5488281 12.912109 L 3.2597656 12.501953 A 6.4632616 6.4632616 0 0 0 6.4296875 14.335938 L 6.4296875 15.251953 L 9.59375 15.251953 L 9.59375 14.304688 A 6.4632616 6.4632616 0 0 0 12.648438 12.490234 L 13.455078 12.957031 L 15.037109 10.216797 L 14.191406 9.7285156 A 6.4632616 6.4632616 0 0 0 14.412109 8.0546875 A 6.4632616 6.4632616 0 0 0 14.164062 6.2832031 L 15 5.8007812 L 13.390625 3.0136719 L 12.539062 3.5058594 A 6.4632616 6.4632616 0 0 0 9.4355469 1.7636719 L 9.4355469 0.76953125 L 6.2167969 0.76953125 z M 8.0195312 3.2519531 A 4.7804351 4.7804351 0 0 1 12.798828 8.0332031 A 4.7804351 4.7804351 0 0 1 8.0195312 12.814453 A 4.7804351 4.7804351 0 0 1 3.2382812 8.0332031 A 4.7804351 4.7804351 0 0 1 8.0195312 3.2519531 z " />
  </g>
</svg>
